<svg width="24" height="24" viewBox="0 0 24 24" fill="none" xmlns="http://www.w3.org/2000/svg">
<g id="Group">
<path id="Vector" fill-rule="evenodd" clip-rule="evenodd" d="M17.8953 6.10387C18.0557 6.00724 18.2473 5.9765 18.4299 6.0181C18.6125 6.0597 18.7719 6.17041 18.8747 6.32699L19.5919 7.42089C19.6856 7.56385 19.7257 7.73535 19.7051 7.90504C19.6846 8.07473 19.6047 8.23169 19.4796 8.34816L19.4774 8.35106L19.4673 8.36048L19.426 8.39887L19.263 8.55462C18.3611 9.42945 17.4865 10.332 16.6405 11.2611C15.049 13.0113 13.1589 15.302 11.8868 17.5246C11.5318 18.1447 10.6647 18.278 10.1503 17.7426L5.45238 12.8614C5.38505 12.7914 5.33249 12.7086 5.2978 12.6179C5.26311 12.5272 5.24701 12.4305 5.25046 12.3334C5.2539 12.2364 5.27683 12.141 5.31786 12.053C5.3589 11.965 5.41721 11.8861 5.48933 11.8211L6.90922 10.5403C7.03399 10.4278 7.19399 10.3622 7.36183 10.3546C7.52966 10.3471 7.69489 10.3981 7.82925 10.499L10.2264 12.2963C13.9703 8.60389 16.0943 7.18689 17.8953 6.10387ZM18.0474 7.70921C16.3884 8.7466 14.318 10.2512 10.8045 13.764C10.6812 13.8873 10.5176 13.962 10.3437 13.9744C10.1697 13.9868 9.99717 13.936 9.85766 13.8314L7.4366 12.016L7.01571 12.3956L10.8675 16.3988C12.2048 14.1748 14.0456 11.9609 15.5691 10.286C16.3714 9.40471 17.1988 8.54663 18.0503 7.71283L18.0474 7.70921Z" fill="#F4F4F4"/>
</g>
</svg>
