<svg width="48" height="48" viewBox="0 0 48 48" fill="none" xmlns="http://www.w3.org/2000/svg">
<g clip-path="url(#clip0_716_38704)">
<path d="M35.2906 28.6546L33.0906 26.4546C32.4348 25.8041 31.5496 25.4373 30.6259 25.4334C29.7022 25.4295 28.8139 25.7887 28.1526 26.4336C27.7998 26.7885 27.3342 27.0093 26.8362 27.058C26.3381 27.1068 25.8386 26.9804 25.4236 26.7006C23.7858 25.6076 22.3788 24.2033 21.2826 22.5676C21.0078 22.148 20.886 21.6465 20.9377 21.1476C20.9894 20.6487 21.2116 20.1829 21.5666 19.8286C22.2057 19.1667 22.5603 18.2809 22.5545 17.3608C22.5487 16.4407 22.183 15.5595 21.5356 14.9056L19.3356 12.7056C18.677 12.0492 17.785 11.6807 16.8551 11.6807C15.9253 11.6807 15.0333 12.0492 14.3746 12.7056L13.7416 13.3396C10.4416 16.6396 10.6886 23.5776 17.5546 30.4396C21.6946 34.5806 25.8616 36.3146 29.2406 36.3146C30.2353 36.3477 31.2266 36.1826 32.1568 35.8287C33.087 35.4749 33.9375 34.9394 34.6586 34.2536L35.2926 33.6196C35.9502 32.9607 36.3194 32.0676 36.319 31.1367C36.3186 30.2058 35.9488 29.313 35.2906 28.6546ZM33.8766 32.2056L33.2426 32.8396C30.6426 35.4396 24.9036 34.9646 18.9666 29.0266C13.0296 23.0886 12.5536 17.3456 15.1536 14.7456L15.7826 14.1126C16.0658 13.8304 16.4493 13.672 16.8491 13.672C17.2489 13.672 17.6324 13.8304 17.9156 14.1126L20.1156 16.3126C20.3937 16.5921 20.5515 16.9691 20.5554 17.3634C20.5594 17.7576 20.4091 18.1377 20.1366 18.4226C19.4609 19.1027 19.0394 19.9942 18.9427 20.948C18.8461 21.9018 19.0801 22.8598 19.6056 23.6616C20.8512 25.5255 22.4529 27.1248 24.3186 28.3676C25.118 28.8932 26.0735 29.1287 27.0256 29.0346C27.9777 28.9405 28.8686 28.5225 29.5496 27.8506C29.834 27.575 30.2152 27.4219 30.6113 27.4243C31.0073 27.4267 31.3866 27.5845 31.6676 27.8636L33.8676 30.0636C34.0094 30.2034 34.1222 30.3698 34.1994 30.5532C34.2767 30.7367 34.3168 30.9337 34.3177 31.1328C34.3185 31.3318 34.28 31.5291 34.2043 31.7132C34.1286 31.8974 34.0172 32.0647 33.8766 32.2056Z" fill="#888888"/>
</g>
<defs>
<clipPath id="clip0_716_38704">
<rect x="4" y="4" width="40" height="40" rx="20" fill="white"/>
</clipPath>
</defs>
</svg>
